# xmcd
#
# Track frame offsets:
# 150
# 22553
# 36722
# 60340
# 84234
# 100506
# 125732
# 151517
# 176860
#
# Disc length: 2617 seconds
#
#
# Revision: 0
# Processed by: cddbd v1.5.2PL0 Copyright (c) Steve Scherf et al.
# Submitted via: FreeRIP 2.90 
#
DISCID=5f0a3709
DTITLE=Lou DeAdder - Altered Reality
DYEAR=2007
DGENRE=blues
TTITLE0=Hot Rod Beach Party
TTITLE1=Space Cowboy
TTITLE2=Modal Therapy
TTITLE3=Wobbly Pop
TTITLE4=Randy's Mushroom Song
TTITLE5=Altered Reality
TTITLE6=The Funky Strudel
TTITLE7=Groove Crew
TTITLE8=Struttin'
EXTD=
EXTT0=
EXTT1=
EXTT2=
EXTT3=
EXTT4=
EXTT5=
EXTT6=
EXTT7=
EXTT8=
PLAYORDER=
